<svg width="806" height="221" viewBox="0 0 806 221" fill="none" xmlns="http://www.w3.org/2000/svg">
<path opacity="0.15" d="M89.9861 159V71.96H116.994C126.978 71.96 134.658 74.9893 140.034 81.048C145.41 87.0213 148.098 95.2987 148.098 105.88V124.952C148.098 135.619 145.41 143.981 140.034 150.04C134.658 156.013 126.978 159 116.994 159H89.9861ZM116.738 82.456H101.122V148.632H116.738C129.965 148.632 136.578 140.739 136.578 124.952V105.88C136.578 90.264 129.965 82.456 116.738 82.456ZM220.126 148.632V159H171.486V71.96H218.846V82.456H182.622V109.72H215.006V120.216H182.622V148.632H220.126ZM295.422 71.96L267.646 159H256.382L228.478 71.96H240.254L254.078 116.12L262.398 144.024L270.846 115.992L284.414 71.96H295.422ZM360.251 148.632V159H311.611V71.96H358.971V82.456H322.747V109.72H355.131V120.216H322.747V148.632H360.251ZM427.227 148.632V159H379.611V71.96H390.747V148.632H427.227ZM501.5 105.88V124.952C501.5 135.789 498.769 144.408 493.308 150.808C487.932 157.123 480.167 160.28 470.012 160.28C459.857 160.28 452.049 157.123 446.588 150.808C441.212 144.408 438.524 135.789 438.524 124.952V105.88C438.524 95.128 441.212 86.5947 446.588 80.28C452.049 73.88 459.857 70.68 470.012 70.68C480.167 70.68 487.932 73.88 493.308 80.28C498.769 86.5947 501.5 95.128 501.5 105.88ZM489.98 105.88C489.98 97.944 488.273 91.8427 484.86 87.576C481.532 83.224 476.583 81.048 470.012 81.048C463.527 81.048 458.577 83.224 455.164 87.576C451.751 91.8427 450.044 97.944 450.044 105.88V124.952C450.044 132.973 451.751 139.16 455.164 143.512C458.577 147.864 463.527 150.04 470.012 150.04C476.583 150.04 481.532 147.864 484.86 143.512C488.273 139.16 489.98 132.973 489.98 124.952V105.88ZM525.111 159V71.96H552.247C560.61 71.96 566.967 74.1787 571.319 78.616C575.756 82.968 577.975 88.8133 577.975 96.152V102.936C577.975 110.275 575.756 116.163 571.319 120.6C566.967 125.037 560.61 127.256 552.247 127.256H536.247V159H525.111ZM552.247 82.456H536.247V116.888H552.247C556.855 116.888 560.354 115.651 562.743 113.176C565.218 110.701 566.455 107.288 566.455 102.936V96.152C566.455 91.8853 565.218 88.5573 562.743 86.168C560.354 83.6933 556.855 82.456 552.247 82.456ZM646.001 148.632V159H597.361V71.96H644.721V82.456H608.497V109.72H640.881V120.216H608.497V148.632H646.001ZM676.497 124.952V159H665.361V71.96H692.625C700.817 71.96 707.132 74.136 711.569 78.488C716.092 82.7547 718.353 88.472 718.353 95.64V101.144C718.353 106.264 717.158 110.701 714.769 114.456C712.465 118.211 709.137 120.984 704.785 122.776C708.454 128.664 711.868 134.637 715.025 140.696C718.182 146.755 721.084 152.856 723.729 159H710.929C706.065 147.395 700.39 136.045 693.905 124.952H676.497ZM692.625 82.2H676.497V114.712H692.625C696.977 114.712 700.433 113.517 702.993 111.128C705.553 108.653 706.833 105.325 706.833 101.144V95.64C706.833 91.3733 705.553 88.088 702.993 85.784C700.433 83.3947 696.977 82.2 692.625 82.2Z" fill="#000D36"/>
<path d="M267.312 123.778C271.024 123.778 272.88 122.402 272.88 119.65C272.88 118.53 272.592 117.65 272.016 117.01C271.472 116.37 270.448 115.81 268.944 115.33L265.008 114.034C260.304 112.498 257.952 109.41 257.952 104.77C257.952 102.082 258.784 99.8739 260.448 98.1459C262.144 96.3859 264.784 95.5059 268.368 95.5059C269.872 95.5059 271.36 95.6819 272.832 96.0339C274.304 96.3539 275.872 96.8819 277.536 97.6179L275.76 102.562C274.224 101.954 272.912 101.522 271.824 101.266C270.768 100.978 269.68 100.834 268.56 100.834C267.088 100.834 265.92 101.106 265.056 101.65C264.224 102.162 263.808 103.106 263.808 104.482C263.808 105.506 264.096 106.354 264.672 107.026C265.28 107.666 266.272 108.21 267.648 108.658L271.584 109.954C273.952 110.754 275.728 111.922 276.912 113.458C278.128 114.962 278.736 116.962 278.736 119.458C278.736 122.338 277.824 124.674 276 126.466C274.176 128.226 271.312 129.106 267.408 129.106C265.872 129.106 264.272 128.93 262.608 128.578C260.976 128.194 259.184 127.554 257.232 126.658L259.008 121.714C260.8 122.482 262.32 123.026 263.568 123.346C264.848 123.634 266.096 123.778 267.312 123.778ZM302.812 127.234C301.148 127.906 299.58 128.386 298.108 128.674C296.636 128.962 295.244 129.106 293.932 129.106C290.316 129.106 287.58 128.082 285.724 126.034C283.868 123.986 282.94 121.266 282.94 117.874V114.994C282.94 112.722 283.356 110.754 284.188 109.09C285.02 107.426 286.204 106.13 287.74 105.202C289.276 104.274 291.084 103.81 293.164 103.81C294.86 103.81 296.444 104.162 297.916 104.866C299.42 105.538 300.636 106.61 301.564 108.082C302.524 109.522 303.004 111.378 303.004 113.65C303.004 114.322 302.956 115.042 302.86 115.81C302.764 116.546 302.604 117.33 302.38 118.162H288.268C288.332 120.146 288.828 121.634 289.756 122.626C290.684 123.618 292.172 124.114 294.22 124.114C295.308 124.114 296.428 123.986 297.58 123.73C298.764 123.474 299.98 123.09 301.228 122.578L302.812 127.234ZM293.164 108.466C291.692 108.466 290.54 108.946 289.708 109.906C288.908 110.834 288.444 112.178 288.316 113.938H297.532C297.564 113.778 297.58 113.634 297.58 113.506C297.58 113.346 297.58 113.202 297.58 113.074C297.58 111.538 297.148 110.386 296.284 109.618C295.42 108.85 294.38 108.466 293.164 108.466ZM323.091 109.33C321.587 109.33 320.147 109.57 318.771 110.05C317.427 110.498 316.131 111.234 314.883 112.258V128.626H309.363V104.29H314.595V108.034C316.227 106.498 317.683 105.41 318.963 104.77C320.243 104.13 321.619 103.81 323.091 103.81V109.33ZM348.134 131.074C348.134 133.666 347.11 135.682 345.062 137.122C343.046 138.594 340.23 139.33 336.614 139.33C334.918 139.33 333.126 139.138 331.238 138.754C329.35 138.37 327.606 137.73 326.006 136.834L327.59 132.466C329.126 133.234 330.646 133.778 332.15 134.098C333.654 134.45 335.126 134.626 336.566 134.626C338.582 134.626 340.118 134.354 341.174 133.81C342.23 133.266 342.758 132.546 342.758 131.65C342.758 130.274 341.942 129.586 340.31 129.586H334.55C332.982 129.586 331.718 129.33 330.758 128.818C329.798 128.306 329.094 127.65 328.646 126.85C328.198 126.018 327.974 125.154 327.974 124.258C327.974 123.33 328.166 122.466 328.55 121.666C328.966 120.834 329.526 120.066 330.23 119.362C329.078 118.658 328.15 117.714 327.446 116.53C326.774 115.346 326.438 113.922 326.438 112.258C326.438 110.37 326.838 108.802 327.638 107.554C328.438 106.306 329.526 105.378 330.902 104.77C332.31 104.13 333.862 103.81 335.558 103.81H336.374C337.014 103.81 337.638 103.858 338.246 103.954C338.854 104.018 339.43 104.13 339.974 104.29H348.662V108.994L343.862 108.226C344.342 108.738 344.71 109.378 344.966 110.146C345.254 110.882 345.398 111.794 345.398 112.882C345.398 114.514 344.982 115.922 344.15 117.106C343.35 118.258 342.262 119.154 340.886 119.794C339.542 120.402 338.038 120.706 336.374 120.706H335.558C334.918 120.706 334.31 120.658 333.734 120.562C333.382 120.946 333.126 121.346 332.966 121.762C332.806 122.146 332.726 122.514 332.726 122.866C332.726 123.986 333.446 124.546 334.886 124.546H340.742C342.95 124.546 344.726 125.122 346.07 126.274C347.446 127.394 348.134 128.994 348.134 131.074ZM336.374 116.194C337.366 116.194 338.23 115.858 338.966 115.186C339.734 114.514 340.118 113.538 340.118 112.258C340.118 110.978 339.734 110.002 338.966 109.33C338.23 108.658 337.366 108.322 336.374 108.322H335.558C334.534 108.322 333.638 108.658 332.87 109.33C332.134 110.002 331.766 110.978 331.766 112.258C331.766 113.538 332.134 114.514 332.87 115.186C333.638 115.858 334.534 116.194 335.558 116.194H336.374ZM359.09 99.6819H353.282V93.9699H359.09V99.6819ZM358.946 128.626H353.426V104.29H358.946V128.626ZM386.471 114.994V117.874C386.471 121.266 385.543 123.986 383.687 126.034C381.831 128.082 379.207 129.106 375.815 129.106C372.423 129.106 369.799 128.082 367.943 126.034C366.087 123.986 365.159 121.266 365.159 117.874V114.994C365.159 111.602 366.071 108.898 367.895 106.882C369.751 104.834 372.391 103.81 375.815 103.81C379.239 103.81 381.863 104.834 383.687 106.882C385.543 108.898 386.471 111.602 386.471 114.994ZM380.807 114.994C380.807 113.042 380.375 111.522 379.511 110.434C378.647 109.314 377.415 108.754 375.815 108.754C374.215 108.754 372.983 109.314 372.119 110.434C371.255 111.522 370.823 113.042 370.823 114.994V117.874C370.823 119.826 371.255 121.362 372.119 122.482C372.983 123.602 374.215 124.162 375.815 124.162C377.415 124.162 378.647 123.602 379.511 122.482C380.375 121.362 380.807 119.826 380.807 117.874V114.994ZM408.749 116.626V128.626H402.989V95.9859H413.885C417.181 95.9859 419.709 96.8339 421.469 98.5299C423.261 100.194 424.157 102.434 424.157 105.25V107.314C424.157 109.17 423.757 110.802 422.957 112.21C422.157 113.618 421.005 114.69 419.501 115.426C422.125 119.906 424.365 124.306 426.221 128.626H419.645C418.045 124.626 416.141 120.626 413.933 116.626H408.749ZM413.885 101.266H408.749V111.346H413.885C415.293 111.346 416.365 110.994 417.101 110.29C417.869 109.554 418.253 108.562 418.253 107.314V105.25C418.253 104.034 417.869 103.074 417.101 102.37C416.365 101.634 415.293 101.266 413.885 101.266ZM451.439 114.994V117.874C451.439 121.266 450.511 123.986 448.655 126.034C446.799 128.082 444.175 129.106 440.783 129.106C437.391 129.106 434.767 128.082 432.911 126.034C431.055 123.986 430.127 121.266 430.127 117.874V114.994C430.127 111.602 431.039 108.898 432.863 106.882C434.719 104.834 437.359 103.81 440.783 103.81C444.207 103.81 446.831 104.834 448.655 106.882C450.511 108.898 451.439 111.602 451.439 114.994ZM445.775 114.994C445.775 113.042 445.343 111.522 444.479 110.434C443.615 109.314 442.383 108.754 440.783 108.754C439.183 108.754 437.951 109.314 437.087 110.434C436.223 111.522 435.791 113.042 435.791 114.994V117.874C435.791 119.826 436.223 121.362 437.087 122.482C437.951 123.602 439.183 124.162 440.783 124.162C442.383 124.162 443.615 123.602 444.479 122.482C445.343 121.362 445.775 119.826 445.775 117.874V114.994ZM463.149 111.778V128.626H457.629V104.29H462.861V107.506C464.365 106.194 465.757 105.25 467.037 104.674C468.317 104.098 469.629 103.81 470.973 103.81C473.949 103.81 475.981 105.122 477.069 107.746C478.669 106.338 480.157 105.33 481.533 104.722C482.909 104.114 484.301 103.81 485.709 103.81C487.949 103.81 489.661 104.562 490.845 106.066C492.029 107.538 492.621 109.618 492.621 112.306V128.626H487.101V112.978C487.101 110.29 486.077 108.946 484.029 108.946C483.229 108.946 482.349 109.138 481.389 109.522C480.429 109.906 479.261 110.658 477.885 111.778V128.626H472.365V112.978C472.365 110.29 471.341 108.946 469.293 108.946C468.493 108.946 467.613 109.138 466.653 109.522C465.693 109.906 464.525 110.658 463.149 111.778ZM518.342 128.866C516.71 128.866 515.398 128.53 514.406 127.858C513.446 127.186 512.742 126.354 512.294 125.362C510.918 126.642 509.59 127.586 508.31 128.194C507.03 128.802 505.654 129.106 504.182 129.106C502.038 129.106 500.454 128.418 499.43 127.042C498.438 125.666 497.942 123.922 497.942 121.81C497.942 120.402 498.198 119.17 498.71 118.114C499.254 117.026 500.134 116.178 501.35 115.57C502.566 114.962 504.23 114.658 506.342 114.658C507.174 114.658 508.038 114.722 508.934 114.85C509.83 114.946 510.726 115.074 511.622 115.234V112.402C511.622 111.058 511.254 110.146 510.518 109.666C509.782 109.154 508.79 108.898 507.542 108.898C506.582 108.898 505.526 109.026 504.374 109.282C503.254 109.538 502.038 109.938 500.726 110.482L499.142 105.778C502.374 104.466 505.302 103.81 507.926 103.81C510.294 103.81 512.118 104.21 513.398 105.01C514.71 105.81 515.622 106.866 516.134 108.178C516.646 109.49 516.902 110.898 516.902 112.402V121.762C516.902 122.242 517.03 122.706 517.286 123.154C517.574 123.57 518.118 123.778 518.918 123.778H519.446V128.866H518.342ZM503.27 121.714C503.27 122.578 503.462 123.266 503.846 123.778C504.23 124.258 504.79 124.498 505.526 124.498C506.262 124.498 507.094 124.306 508.022 123.922C508.95 123.538 510.15 122.642 511.622 121.234V119.17C509.958 118.882 508.326 118.738 506.726 118.738C505.478 118.738 504.582 118.994 504.038 119.506C503.526 120.018 503.27 120.754 503.27 121.714ZM536.142 108.946C535.342 108.946 534.43 109.138 533.406 109.522C532.382 109.906 531.166 110.658 529.758 111.778V128.626H524.238V104.29H529.47V107.554C530.974 106.242 532.398 105.298 533.742 104.722C535.086 104.114 536.446 103.81 537.822 103.81C540.158 103.81 541.934 104.562 543.15 106.066C544.366 107.538 544.974 109.618 544.974 112.306V128.626H539.454V112.978C539.454 110.29 538.35 108.946 536.142 108.946Z" fill="#1572D1"/>
</svg>
